<svg xmlns="http://www.w3.org/2000/svg" xmlns:xlink="http://www.w3.org/1999/xlink" width="500" zoomAndPan="magnify" viewBox="0 0 375 374.999991" height="500" preserveAspectRatio="xMidYMid meet" version="1.0"><defs><g/><clipPath id="3a0cc0bfed"><path d="M 198 171 L 269 171 L 269 204.6875 L 198 204.6875 Z M 198 171 " clip-rule="nonzero"/></clipPath><clipPath id="2cea264850"><path d="M 85.851562 166.828125 L 117.257812 166.828125 L 117.257812 204.328125 L 85.851562 204.328125 Z M 85.851562 166.828125 " clip-rule="nonzero"/></clipPath></defs><rect x="-37.5" width="450" fill="#ffffff" y="-37.499999" height="449.999989" fill-opacity="1"/><rect x="-37.5" width="450" fill="#ffffff" y="-37.499999" height="449.999989" fill-opacity="1"/><rect x="-37.5" width="450" fill="#ffffff" y="-37.499999" height="449.999989" fill-opacity="1"/><g clip-path="url(#3a0cc0bfed)"><path fill="#2818e6" d="M 267.925781 180.898438 C 266.871094 178.109375 265.757812 178.984375 263.382812 177.808594 C 265.070312 177.078125 266.371094 176.585938 268.519531 176.871094 C 267.988281 175.601562 266.234375 176.058594 265 175.785156 C 264.976562 174.988281 265.367188 175.113281 265.703125 175.109375 C 261.035156 171.15625 250.265625 173.597656 244.386719 171.4375 C 244.175781 171.414062 243.964844 171.398438 243.75 171.375 C 241.609375 171.996094 238.703125 170.9375 236.496094 171.414062 C 235.9375 172.617188 233.324219 171.617188 231.984375 171.722656 C 229.332031 171.925781 226.40625 171.859375 223.316406 172.105469 C 214.890625 172.789062 205.773438 172.832031 198.59375 175.894531 C 199.234375 176.476562 200.253906 176.523438 200.8125 177.222656 C 200.378906 179.59375 196.929688 183.449219 200.042969 184.597656 C 200.546875 185.457031 198.472656 184.378906 198.28125 185.167969 C 197.757812 186.484375 198.289062 187.015625 198.039062 187.746094 C 198.34375 188.527344 199.222656 186.8125 200.1875 187.582031 C 199.089844 189.722656 199.917969 196.351562 198.992188 198.375 C 199.628906 198.4375 200.265625 198.496094 200.898438 198.5625 C 200.285156 198.859375 199.792969 199.832031 201.007812 199.6875 C 200.894531 200.332031 200.5625 200.496094 200.089844 200.339844 C 200.300781 201.488281 201.046875 200.128906 201.570312 200.484375 C 201.5625 201.652344 201.132812 201.894531 200.9375 202.652344 C 202.894531 202.960938 204.496094 202.480469 206.113281 202.042969 C 205.441406 202.859375 205.480469 203.929688 205.480469 204.210938 C 213.988281 203.128906 226.128906 201.578125 235.492188 202.667969 C 235.535156 201.863281 235.035156 201.824219 234.503906 201.828125 C 235.773438 201.289062 237.292969 201.242188 238.550781 201.851562 C 237.9375 201.191406 239.84375 200.894531 240.984375 200.972656 C 246.921875 201.363281 256.246094 202.875 262.4375 204.171875 C 262.441406 203.738281 262.078125 203.828125 261.839844 203.742188 C 263.0625 202.804688 265.515625 204.6875 267.160156 203.886719 C 267.273438 203.089844 266.425781 203.644531 266.136719 203.414062 C 266.253906 202.921875 266.699219 203.164062 267.019531 203.128906 C 265.769531 201.652344 264.289062 202.816406 262.4375 201.9375 C 262.019531 201.742188 263.289062 201.675781 263.527344 201.675781 C 264.347656 201.675781 266.285156 202.179688 267.578125 201.695312 C 267.636719 200.542969 266.582031 200.972656 265.953125 200.796875 C 267.0625 200.089844 266.34375 199.265625 265.492188 198.894531 C 266.527344 197.761719 267.566406 196.625 268.238281 194.699219 C 269.542969 188.460938 267.277344 183.179688 267.925781 180.898438 Z M 226.332031 200.285156 C 223.15625 200.5625 220.035156 200.957031 216.679688 200.835938 C 216.019531 200.175781 218.882812 200.484375 219.921875 200.40625 C 222.546875 200.210938 224.539062 199.699219 227.84375 200.0625 C 227.675781 200.878906 226.792969 200.109375 226.332031 200.285156 Z M 226.332031 200.285156 " fill-opacity="1" fill-rule="evenodd"/></g><g fill="#000000" fill-opacity="1"><g transform="translate(115.029884, 196.499987)"><g><path d="M 22.984375 -12.125 L 4.5625 -12.125 L 4.5625 -21.5625 L 22.984375 -21.5625 Z M 20.21875 -18.875 L 7.359375 -18.875 L 7.359375 -14.78125 L 20.21875 -14.78125 Z M 25.203125 1.8125 C 23.054688 0.863281 21.160156 -0.15625 19.515625 -1.25 C 17.867188 -2.34375 16.382812 -3.53125 15.0625 -4.8125 L 15.0625 2.75 L 12.34375 2.75 L 12.34375 -4.390625 C 11 -3.160156 9.503906 -2.046875 7.859375 -1.046875 C 6.222656 -0.046875 4.40625 0.898438 2.40625 1.796875 L 1.125 -0.921875 C 3.289062 -1.742188 5.210938 -2.617188 6.890625 -3.546875 C 8.566406 -4.484375 10.050781 -5.539062 11.34375 -6.71875 L 2.328125 -6.71875 L 2.328125 -9.359375 L 12.34375 -9.359375 L 12.34375 -11.59375 L 15.0625 -11.484375 L 15.0625 -9.359375 L 25.234375 -9.359375 L 25.234375 -6.71875 L 16.328125 -6.71875 C 17.609375 -5.539062 19.078125 -4.476562 20.734375 -3.53125 C 22.390625 -2.59375 24.289062 -1.722656 26.4375 -0.921875 Z M 25.203125 1.8125 "/></g></g></g><g fill="#000000" fill-opacity="1"><g transform="translate(142.578123, 196.499987)"><g><path d="M 24.8125 2.890625 C 23.238281 1.929688 21.628906 0.988281 19.984375 0.0625 C 18.347656 -0.851562 16.632812 -1.78125 14.84375 -2.71875 C 14.300781 -2.101562 13.660156 -1.53125 12.921875 -1 C 12.179688 -0.46875 11.320312 0.03125 10.34375 0.5 C 9.363281 0.96875 8.253906 1.414062 7.015625 1.84375 C 5.773438 2.269531 4.378906 2.707031 2.828125 3.15625 L 1.796875 0.21875 C 3.523438 -0.238281 5.039062 -0.679688 6.34375 -1.109375 C 7.65625 -1.546875 8.789062 -2.003906 9.75 -2.484375 C 10.71875 -2.972656 11.519531 -3.507812 12.15625 -4.09375 C 12.800781 -4.6875 13.320312 -5.375 13.71875 -6.15625 L 1.734375 -6.15625 L 1.734375 -8.796875 L 10.5 -8.796875 C 10.050781 -9.128906 9.523438 -9.503906 8.921875 -9.921875 C 8.316406 -10.347656 7.679688 -10.773438 7.015625 -11.203125 C 6.347656 -11.628906 5.6875 -12.050781 5.03125 -12.46875 C 4.382812 -12.894531 3.800781 -13.273438 3.28125 -13.609375 L 4.640625 -16.078125 C 5.222656 -15.703125 5.832031 -15.316406 6.46875 -14.921875 C 7.101562 -14.535156 7.734375 -14.132812 8.359375 -13.71875 C 8.984375 -13.3125 9.585938 -12.910156 10.171875 -12.515625 C 10.765625 -12.117188 11.3125 -11.742188 11.8125 -11.390625 L 10.53125 -8.796875 L 14.609375 -8.796875 C 14.785156 -9.578125 14.90625 -10.425781 14.96875 -11.34375 C 15.03125 -12.269531 15.082031 -13.3125 15.125 -14.46875 C 15.125 -14.8125 15.128906 -15.34375 15.140625 -16.0625 C 15.160156 -16.78125 15.175781 -17.539062 15.1875 -18.34375 C 15.195312 -19.144531 15.207031 -19.910156 15.21875 -20.640625 C 15.226562 -21.378906 15.234375 -21.945312 15.234375 -22.34375 L 18.03125 -22.234375 C 18.03125 -21.816406 18.023438 -21.222656 18.015625 -20.453125 C 18.003906 -19.679688 17.992188 -18.878906 17.984375 -18.046875 C 17.972656 -17.210938 17.960938 -16.425781 17.953125 -15.6875 C 17.953125 -14.957031 17.941406 -14.421875 17.921875 -14.078125 C 17.878906 -13.078125 17.820312 -12.140625 17.75 -11.265625 C 17.675781 -10.398438 17.566406 -9.578125 17.421875 -8.796875 L 25.59375 -8.796875 L 25.59375 -6.15625 L 16.765625 -6.15625 C 16.691406 -5.957031 16.625 -5.765625 16.5625 -5.578125 C 16.5 -5.390625 16.421875 -5.203125 16.328125 -5.015625 C 18.046875 -4.148438 19.703125 -3.304688 21.296875 -2.484375 C 22.890625 -1.671875 24.429688 -0.851562 25.921875 -0.03125 Z M 12.125 -14.390625 C 11.09375 -15.160156 9.984375 -15.953125 8.796875 -16.765625 C 7.617188 -17.585938 6.414062 -18.394531 5.1875 -19.1875 L 6.640625 -21.609375 C 7.347656 -21.148438 7.988281 -20.734375 8.5625 -20.359375 C 9.144531 -19.984375 9.695312 -19.625 10.21875 -19.28125 C 10.738281 -18.9375 11.253906 -18.582031 11.765625 -18.21875 C 12.285156 -17.851562 12.832031 -17.457031 13.40625 -17.03125 Z M 12.125 -14.390625 "/></g></g></g><g fill="#000000" fill-opacity="1"><g transform="translate(170.126362, 196.499987)"><g><path d="M 25.484375 -9.296875 C 25.484375 -9.179688 25.472656 -8.914062 25.453125 -8.5 C 25.429688 -8.082031 25.40625 -7.585938 25.375 -7.015625 C 25.351562 -6.441406 25.328125 -5.832031 25.296875 -5.1875 C 25.265625 -4.550781 25.234375 -3.9375 25.203125 -3.34375 C 25.179688 -2.757812 25.160156 -2.242188 25.140625 -1.796875 C 25.117188 -1.359375 25.101562 -1.066406 25.09375 -0.921875 C 25.03125 -0.265625 24.941406 0.273438 24.828125 0.703125 C 24.722656 1.128906 24.546875 1.472656 24.296875 1.734375 C 24.054688 1.992188 23.710938 2.1875 23.265625 2.3125 C 22.816406 2.445312 22.226562 2.546875 21.5 2.609375 L 19.3125 2.796875 L 18.625 0.21875 L 20.53125 0.109375 C 20.976562 0.078125 21.335938 0.0351562 21.609375 -0.015625 C 21.890625 -0.078125 22.101562 -0.164062 22.25 -0.28125 C 22.40625 -0.394531 22.515625 -0.546875 22.578125 -0.734375 C 22.648438 -0.929688 22.703125 -1.191406 22.734375 -1.515625 C 22.753906 -1.703125 22.78125 -2.066406 22.8125 -2.609375 C 22.851562 -3.148438 22.890625 -3.722656 22.921875 -4.328125 C 22.960938 -4.929688 23 -5.488281 23.03125 -6 C 23.0625 -6.519531 23.078125 -6.863281 23.078125 -7.03125 L 15.015625 -7.03125 L 15.015625 -20.21875 L 17.46875 -20.21875 C 17.625 -20.664062 17.757812 -21.117188 17.875 -21.578125 C 18 -22.035156 18.109375 -22.421875 18.203125 -22.734375 L 20.578125 -22.28125 C 20.503906 -21.96875 20.414062 -21.632812 20.3125 -21.28125 C 20.207031 -20.925781 20.09375 -20.570312 19.96875 -20.21875 L 24.328125 -20.21875 C 24.304688 -19.957031 24.28125 -19.515625 24.25 -18.890625 C 24.226562 -18.265625 24.203125 -17.59375 24.171875 -16.875 C 24.148438 -16.15625 24.125 -15.46875 24.09375 -14.8125 C 24.0625 -14.15625 24.039062 -13.6875 24.03125 -13.40625 C 24.007812 -12.851562 23.953125 -12.398438 23.859375 -12.046875 C 23.765625 -11.703125 23.617188 -11.425781 23.421875 -11.21875 C 23.222656 -11.019531 22.960938 -10.867188 22.640625 -10.765625 C 22.328125 -10.660156 21.921875 -10.582031 21.421875 -10.53125 L 19.9375 -10.328125 L 19.1875 -12.578125 L 20.40625 -12.6875 C 20.945312 -12.738281 21.316406 -12.835938 21.515625 -12.984375 C 21.710938 -13.140625 21.820312 -13.453125 21.84375 -13.921875 C 21.863281 -14.066406 21.878906 -14.328125 21.890625 -14.703125 C 21.910156 -15.085938 21.9375 -15.488281 21.96875 -15.90625 C 22 -16.332031 22.019531 -16.726562 22.03125 -17.09375 C 22.050781 -17.457031 22.0625 -17.707031 22.0625 -17.84375 L 17.21875 -17.84375 L 17.21875 -9.296875 Z M 13.25 -1.09375 C 13.28125 -1.3125 13.3125 -1.546875 13.34375 -1.796875 C 13.382812 -2.054688 13.425781 -2.316406 13.46875 -2.578125 L 15.375 -1.65625 C 15.332031 -1.394531 15.273438 -1.125 15.203125 -0.84375 C 15.128906 -0.5625 15.035156 -0.175781 14.921875 0.3125 C 14.753906 1.09375 14.503906 1.707031 14.171875 2.15625 C 13.847656 2.601562 13.410156 2.828125 12.859375 2.828125 C 12.410156 2.828125 11.960938 2.59375 11.515625 2.125 C 11.066406 1.65625 10.625 0.796875 10.1875 -0.453125 C 10.09375 -0.691406 10.015625 -0.9375 9.953125 -1.1875 C 9.890625 -1.4375 9.820312 -1.703125 9.75 -1.984375 C 8.945312 -1.035156 8.125 -0.195312 7.28125 0.53125 L 6.296875 -0.84375 L 6.296875 -0.734375 C 6.296875 -0.128906 6.253906 0.351562 6.171875 0.71875 C 6.085938 1.09375 5.941406 1.394531 5.734375 1.625 C 5.535156 1.863281 5.265625 2.035156 4.921875 2.140625 C 4.585938 2.242188 4.171875 2.316406 3.671875 2.359375 L 2.546875 2.4375 L 1.875 0.109375 L 2.890625 0.03125 C 3.128906 0.0078125 3.328125 -0.015625 3.484375 -0.046875 C 3.640625 -0.0859375 3.757812 -0.15625 3.84375 -0.25 C 3.925781 -0.34375 3.984375 -0.472656 4.015625 -0.640625 C 4.046875 -0.804688 4.0625 -1.039062 4.0625 -1.34375 L 4.0625 -5.578125 C 3.613281 -5.398438 3.207031 -5.242188 2.84375 -5.109375 C 2.476562 -4.972656 2.191406 -4.859375 1.984375 -4.765625 L 1.421875 -7.390625 C 1.671875 -7.460938 2.03125 -7.578125 2.5 -7.734375 C 2.976562 -7.898438 3.5 -8.082031 4.0625 -8.28125 L 4.0625 -12.34375 L 1.34375 -12.34375 L 1.34375 -14.875 L 4.0625 -14.875 L 4.0625 -17.84375 C 3.726562 -17.757812 3.398438 -17.6875 3.078125 -17.625 C 2.765625 -17.5625 2.476562 -17.507812 2.21875 -17.46875 L 1.9375 -19.859375 C 2.738281 -20.054688 3.625 -20.285156 4.59375 -20.546875 C 5.5625 -20.804688 6.46875 -21.097656 7.3125 -21.421875 L 7.953125 -18.984375 C 7.710938 -18.890625 7.457031 -18.796875 7.1875 -18.703125 C 6.914062 -18.609375 6.617188 -18.515625 6.296875 -18.421875 L 6.296875 -14.875 L 8.375 -14.875 L 8.28125 -17.078125 C 8.28125 -17.410156 8.269531 -17.847656 8.25 -18.390625 C 8.238281 -18.929688 8.226562 -19.484375 8.21875 -20.046875 C 8.207031 -20.609375 8.195312 -21.117188 8.1875 -21.578125 C 8.175781 -22.035156 8.171875 -22.347656 8.171875 -22.515625 L 10.296875 -22.40625 C 10.296875 -22.25 10.300781 -22 10.3125 -21.65625 C 10.320312 -21.3125 10.328125 -20.894531 10.328125 -20.40625 L 11.984375 -21.453125 C 12.203125 -21.128906 12.429688 -20.789062 12.671875 -20.4375 C 12.921875 -20.082031 13.15625 -19.726562 13.375 -19.375 C 13.601562 -19.019531 13.820312 -18.675781 14.03125 -18.34375 C 14.238281 -18.007812 14.40625 -17.703125 14.53125 -17.421875 L 12.859375 -15.984375 C 12.722656 -16.265625 12.554688 -16.59375 12.359375 -16.96875 C 12.160156 -17.34375 11.945312 -17.726562 11.71875 -18.125 C 11.5 -18.53125 11.269531 -18.925781 11.03125 -19.3125 C 10.789062 -19.707031 10.554688 -20.066406 10.328125 -20.390625 C 10.347656 -19.804688 10.367188 -19.195312 10.390625 -18.5625 C 10.410156 -17.925781 10.425781 -17.367188 10.4375 -16.890625 L 10.53125 -14.875 L 14.140625 -14.875 L 14.140625 -12.34375 L 10.671875 -12.34375 C 10.703125 -11.445312 10.75 -10.613281 10.8125 -9.84375 C 10.882812 -9.070312 10.945312 -8.347656 11 -7.671875 C 11.320312 -8.210938 11.617188 -8.769531 11.890625 -9.34375 C 12.160156 -9.925781 12.414062 -10.523438 12.65625 -11.140625 L 14.59375 -10.28125 C 13.75 -8.113281 12.703125 -6.097656 11.453125 -4.234375 C 11.546875 -3.671875 11.640625 -3.164062 11.734375 -2.71875 C 11.828125 -2.269531 11.921875 -1.867188 12.015625 -1.515625 C 12.160156 -0.992188 12.289062 -0.625 12.40625 -0.40625 C 12.53125 -0.1875 12.660156 -0.0703125 12.796875 -0.0625 C 12.910156 -0.0625 12.992188 -0.140625 13.046875 -0.296875 C 13.097656 -0.453125 13.164062 -0.71875 13.25 -1.09375 Z M 19.09375 -17.421875 C 19.519531 -16.890625 19.914062 -16.390625 20.28125 -15.921875 C 20.644531 -15.460938 21 -14.972656 21.34375 -14.453125 L 19.71875 -12.875 C 19.4375 -13.414062 19.085938 -14 18.671875 -14.625 C 18.265625 -15.25 17.898438 -15.757812 17.578125 -16.15625 Z M 6.296875 -1.734375 C 6.835938 -2.222656 7.347656 -2.726562 7.828125 -3.25 C 8.316406 -3.769531 8.78125 -4.320312 9.21875 -4.90625 C 9.0625 -5.851562 8.925781 -6.929688 8.8125 -8.140625 C 8.707031 -9.359375 8.609375 -10.757812 8.515625 -12.34375 L 6.296875 -12.34375 L 6.296875 -9.078125 L 8.0625 -9.75 L 8.28125 -8.3125 L 8.453125 -7.203125 C 8.285156 -7.140625 8.003906 -7.035156 7.609375 -6.890625 C 7.222656 -6.753906 6.785156 -6.59375 6.296875 -6.40625 Z M 13.890625 -2.75 L 13.890625 -5.125 L 21.953125 -5.125 L 21.953125 -2.75 Z M 13.890625 -2.75 "/></g></g></g><g fill="#000000" fill-opacity="1"><g transform="translate(197.674602, 196.499987)"><g/></g></g><g fill="#ffffff" fill-opacity="1"><g transform="translate(204.865816, 196.499987)"><g><path d="M 10.5625 -0.5625 C 10.945312 -0.582031 11.265625 -0.628906 11.515625 -0.703125 C 11.773438 -0.773438 11.96875 -0.882812 12.09375 -1.03125 C 12.226562 -1.1875 12.316406 -1.390625 12.359375 -1.640625 C 12.410156 -1.890625 12.4375 -2.203125 12.4375 -2.578125 L 12.4375 -21.984375 L 15.375 -21.875 L 15.375 -1.65625 C 15.375 -0.863281 15.304688 -0.21875 15.171875 0.28125 C 15.046875 0.78125 14.816406 1.179688 14.484375 1.484375 C 14.160156 1.785156 13.734375 2 13.203125 2.125 C 12.671875 2.257812 12.015625 2.351562 11.234375 2.40625 L 8.484375 2.578125 L 7.53125 -0.421875 Z M 20.25 -17.421875 C 20.53125 -16.835938 20.859375 -16.15625 21.234375 -15.375 C 21.617188 -14.59375 22.015625 -13.757812 22.421875 -12.875 C 22.835938 -12 23.253906 -11.097656 23.671875 -10.171875 C 24.085938 -9.253906 24.492188 -8.359375 24.890625 -7.484375 C 25.285156 -6.617188 25.648438 -5.796875 25.984375 -5.015625 C 26.316406 -4.242188 26.597656 -3.582031 26.828125 -3.03125 L 24.046875 -1.5625 C 23.671875 -2.519531 23.21875 -3.640625 22.6875 -4.921875 C 22.15625 -6.210938 21.59375 -7.539062 21 -8.90625 C 20.40625 -10.269531 19.8125 -11.59375 19.21875 -12.875 C 18.632812 -14.164062 18.109375 -15.296875 17.640625 -16.265625 Z M 0.8125 -3.28125 C 1.351562 -4.28125 1.890625 -5.375 2.421875 -6.5625 C 2.953125 -7.75 3.453125 -8.960938 3.921875 -10.203125 C 4.398438 -11.441406 4.828125 -12.664062 5.203125 -13.875 C 5.578125 -15.09375 5.878906 -16.226562 6.109375 -17.28125 L 8.9375 -16.578125 C 8.65625 -15.378906 8.304688 -14.132812 7.890625 -12.84375 C 7.484375 -11.5625 7.03125 -10.285156 6.53125 -9.015625 C 6.039062 -7.742188 5.523438 -6.503906 4.984375 -5.296875 C 4.441406 -4.097656 3.898438 -2.976562 3.359375 -1.9375 Z M 0.8125 -3.28125 "/></g></g></g><g fill="#ffffff" fill-opacity="1"><g transform="translate(232.414055, 196.499987)"><g><path d="M 6.40625 -12.15625 C 6.40625 -10.375 6.335938 -8.78125 6.203125 -7.375 C 6.078125 -5.96875 5.875 -4.664062 5.59375 -3.46875 C 5.320312 -2.28125 4.960938 -1.15625 4.515625 -0.09375 C 4.078125 0.957031 3.550781 2.015625 2.9375 3.078125 L 0.46875 1.546875 C 1.050781 0.585938 1.546875 -0.328125 1.953125 -1.203125 C 2.367188 -2.078125 2.703125 -3.015625 2.953125 -4.015625 C 3.203125 -5.015625 3.390625 -6.113281 3.515625 -7.3125 C 3.640625 -8.519531 3.703125 -9.925781 3.703125 -11.53125 L 3.703125 -21.140625 L 24.421875 -21.140625 L 24.421875 -14.8125 L 6.40625 -14.8125 Z M 6.40625 -18.953125 L 6.40625 -17 L 21.671875 -17 L 21.671875 -18.953125 Z M 25.78125 -0.203125 L 25.78125 1.984375 L 5.625 1.984375 L 5.625 -0.203125 L 14.390625 -0.203125 L 14.390625 -2.359375 L 7.84375 -2.359375 L 7.84375 -4.515625 L 14.390625 -4.515625 L 14.390625 -6.40625 L 10.03125 -6.265625 C 9.59375 -6.234375 9.210938 -6.207031 8.890625 -6.1875 C 8.578125 -6.164062 8.265625 -6.140625 7.953125 -6.109375 L 7.359375 -8.0625 C 7.679688 -8.113281 7.976562 -8.203125 8.25 -8.328125 C 8.519531 -8.453125 8.753906 -8.585938 8.953125 -8.734375 C 9.398438 -9.035156 9.867188 -9.378906 10.359375 -9.765625 C 10.847656 -10.160156 11.34375 -10.59375 11.84375 -11.0625 L 7.203125 -11.0625 L 7.203125 -13.1875 L 24.703125 -13.1875 L 24.703125 -11.0625 L 20.25 -11.0625 C 20.613281 -10.738281 21 -10.40625 21.40625 -10.0625 C 21.820312 -9.71875 22.226562 -9.367188 22.625 -9.015625 C 23.019531 -8.660156 23.394531 -8.3125 23.75 -7.96875 C 24.101562 -7.632812 24.410156 -7.332031 24.671875 -7.0625 L 23.09375 -5.125 C 22.90625 -5.332031 22.6875 -5.5625 22.4375 -5.8125 C 22.1875 -6.0625 21.910156 -6.316406 21.609375 -6.578125 C 21.128906 -6.578125 20.492188 -6.566406 19.703125 -6.546875 C 18.910156 -6.535156 18.046875 -6.519531 17.109375 -6.5 L 17.109375 -4.515625 L 23.9375 -4.515625 L 23.9375 -2.359375 L 17.109375 -2.359375 L 17.109375 -0.203125 Z M 15.265625 -11.0625 C 14.679688 -10.476562 14.140625 -9.984375 13.640625 -9.578125 C 13.148438 -9.179688 12.625 -8.796875 12.0625 -8.421875 C 12.476562 -8.421875 12.984375 -8.429688 13.578125 -8.453125 C 14.171875 -8.472656 14.800781 -8.492188 15.46875 -8.515625 C 16.144531 -8.535156 16.820312 -8.550781 17.5 -8.5625 C 18.1875 -8.582031 18.820312 -8.601562 19.40625 -8.625 L 17.609375 -10.109375 L 18.59375 -11.0625 Z M 15.265625 -11.0625 "/></g></g></g><g clip-path="url(#2cea264850)"><path fill="#000000" d="M 99.105469 202.535156 C 99.234375 202.535156 99.738281 202.382812 100.234375 202.242188 C 100.253906 202.148438 100.28125 202.046875 100.308594 201.945312 C 100.375 201.707031 100.492188 200.539062 100.59375 199.363281 C 100.488281 199.160156 100.328125 198.832031 100.222656 198.566406 C 99.929688 198.582031 99.652344 198.597656 99.410156 198.617188 C 99.308594 198.820312 99.164062 199.085938 99.035156 199.199219 C 99.007812 199.222656 98.976562 199.246094 98.945312 199.269531 C 98.777344 199.933594 98.636719 200.507812 98.628906 200.605469 C 98.613281 200.863281 98.464844 201.761719 98.464844 201.835938 C 98.464844 201.910156 98.851562 202.535156 99.105469 202.535156 Z M 86.246094 191.011719 C 86.433594 190.800781 86.652344 190.667969 86.929688 190.582031 C 87.390625 190.4375 86.210938 190.570312 86.210938 190.332031 C 86.210938 190.09375 86.785156 189.421875 86.628906 189.359375 C 86.46875 189.292969 86.75 188.738281 87.398438 188.484375 C 88.050781 188.230469 88.21875 187.984375 89.089844 187.984375 C 89.964844 187.984375 89.804688 187.746094 90.1875 187.683594 C 90.570312 187.617188 92.046875 187.414062 93.445312 187.269531 C 95.160156 187.09375 96.816406 186.570312 98.519531 186.320312 C 100.769531 185.984375 102.996094 186.367188 104.988281 185.015625 C 106.722656 183.839844 106.824219 182.089844 107.050781 180.179688 C 107.328125 177.851562 107.738281 175.550781 108.160156 173.242188 C 108.40625 171.878906 108.714844 170.515625 109.238281 169.226562 C 109.539062 168.480469 110.101562 167.71875 110.726562 167.210938 C 111.195312 166.828125 111.957031 167 112.371094 167 C 112.785156 167 113.234375 167.417969 113.476562 167.523438 C 113.71875 167.625 113.910156 167.921875 114.308594 167.992188 C 114.707031 168.0625 116.144531 168.496094 116.144531 168.496094 C 117.351562 168.667969 117.078125 168.859375 117.078125 169 C 117.078125 169.140625 116.414062 169.242188 115.765625 169.269531 C 115.117188 169.296875 113.976562 169.890625 113.398438 170.132812 C 112.222656 170.621094 111.621094 171.808594 111.246094 172.945312 C 110.765625 174.398438 110.449219 175.933594 110.316406 177.457031 C 110.238281 178.367188 110.230469 179.296875 110.289062 180.207031 C 110.414062 182.09375 110.855469 183.828125 111.414062 185.625 C 112.003906 187.523438 112.355469 189.765625 111.667969 191.683594 C 111.078125 193.339844 109.796875 194.6875 108.800781 195.4375 C 107.800781 196.1875 105.804688 197.25 104.871094 197.941406 C 104.511719 198.203125 103.699219 198.339844 102.761719 198.421875 C 102.683594 198.597656 102.472656 199.042969 102.296875 199.199219 C 102.214844 199.273438 102.109375 199.339844 102.007812 199.398438 C 101.777344 200.117188 101.578125 200.746094 101.570312 200.855469 C 101.554688 201.097656 101.429688 201.882812 101.402344 202.101562 C 101.484375 202.179688 101.515625 202.265625 101.601562 202.402344 C 101.71875 202.585938 102.054688 202.835938 102.265625 202.847656 C 102.28125 202.847656 102.292969 202.851562 102.308594 202.851562 C 102.890625 202.710938 104.25 202.261719 104.394531 202.355469 C 104.570312 202.46875 104.589844 202.5625 104.710938 202.753906 C 104.832031 202.949219 105.1875 203.214844 105.414062 203.222656 C 105.636719 203.234375 105.777344 203.570312 105.574219 203.632812 C 105.371094 203.691406 104.609375 203.957031 104.222656 204.03125 C 103.835938 204.101562 101.285156 204.234375 101.285156 204.234375 C 101.285156 204.234375 100.914062 204.324219 100.480469 203.632812 C 99.636719 203.632812 98.324219 203.582031 98.324219 203.582031 C 98.324219 203.582031 97.78125 203.222656 97.433594 202.9375 C 97.085938 202.652344 97.300781 202.121094 97.433594 201.636719 C 97.488281 201.441406 97.605469 200.566406 97.726562 199.589844 C 97.597656 199.488281 97.039062 199.011719 96.894531 198.496094 C 95.011719 198.046875 92.429688 197.101562 91.921875 196.800781 C 91.203125 196.375 90.546875 196.472656 90.152344 196.257812 C 89.757812 196.046875 89.25 195.257812 89.234375 195.042969 C 89.21875 194.828125 89.167969 193.992188 88.988281 193.710938 C 88.808594 193.433594 87.421875 192.140625 87.359375 192.015625 C 87.296875 191.886719 86.34375 191.585938 86.121094 191.585938 C 85.851562 191.585938 86.078125 191.238281 86.148438 191.140625 C 86.179688 191.09375 86.214844 191.050781 86.246094 191.011719 " fill-opacity="1" fill-rule="nonzero"/></g><g fill="#000000" fill-opacity="1"><g transform="translate(189.736398, 219.403301)"><g><path d="M 2.0625 0.046875 C 1.789062 0.046875 1.5625 0.0234375 1.375 -0.015625 C 1.195312 -0.0664062 1.050781 -0.144531 0.9375 -0.25 C 0.832031 -0.351562 0.753906 -0.484375 0.703125 -0.640625 C 0.660156 -0.796875 0.640625 -0.984375 0.640625 -1.203125 L 0.640625 -6.84375 L 1.953125 -6.84375 L 1.953125 -1.515625 C 1.953125 -1.304688 1.984375 -1.164062 2.046875 -1.09375 C 2.109375 -1.019531 2.210938 -0.984375 2.359375 -0.984375 C 2.390625 -0.984375 2.425781 -0.984375 2.46875 -0.984375 C 2.507812 -0.984375 2.5625 -0.992188 2.625 -1.015625 L 2.625 0 C 2.445312 0.03125 2.257812 0.046875 2.0625 0.046875 Z M 2.0625 0.046875 "/></g></g></g><g fill="#000000" fill-opacity="1"><g transform="translate(197.530416, 219.403301)"><g><path d="M 3.484375 -4.953125 C 3.785156 -4.953125 4.035156 -4.914062 4.234375 -4.84375 C 4.441406 -4.78125 4.609375 -4.675781 4.734375 -4.53125 C 4.867188 -4.394531 4.960938 -4.222656 5.015625 -4.015625 C 5.066406 -3.816406 5.09375 -3.585938 5.09375 -3.328125 L 5.09375 0 L 3.78125 0 L 3.78125 -2.984375 C 3.78125 -3.304688 3.726562 -3.535156 3.625 -3.671875 C 3.519531 -3.816406 3.3125 -3.890625 3 -3.890625 C 2.726562 -3.890625 2.503906 -3.835938 2.328125 -3.734375 C 2.148438 -3.628906 2.03125 -3.445312 1.96875 -3.1875 L 1.96875 0 L 0.65625 0 L 0.65625 -6.84375 L 1.96875 -6.84375 L 1.96875 -4.265625 C 2.09375 -4.492188 2.285156 -4.664062 2.546875 -4.78125 C 2.804688 -4.894531 3.117188 -4.953125 3.484375 -4.953125 Z M 3.484375 -4.953125 "/></g></g></g><g fill="#000000" fill-opacity="1"><g transform="translate(208.312452, 219.403301)"><g><path d="M 1.984375 0.046875 C 1.703125 0.046875 1.429688 0.03125 1.171875 0 C 0.910156 -0.0195312 0.671875 -0.0507812 0.453125 -0.09375 L 0.453125 -1.1875 C 0.679688 -1.113281 0.925781 -1.054688 1.1875 -1.015625 C 1.445312 -0.984375 1.691406 -0.96875 1.921875 -0.96875 C 2.203125 -0.96875 2.40625 -1 2.53125 -1.0625 C 2.664062 -1.125 2.734375 -1.253906 2.734375 -1.453125 C 2.734375 -1.546875 2.71875 -1.625 2.6875 -1.6875 C 2.664062 -1.757812 2.617188 -1.816406 2.546875 -1.859375 C 2.484375 -1.910156 2.390625 -1.953125 2.265625 -1.984375 C 2.148438 -2.023438 1.992188 -2.070312 1.796875 -2.125 C 1.535156 -2.1875 1.320312 -2.253906 1.15625 -2.328125 C 0.988281 -2.398438 0.851562 -2.488281 0.75 -2.59375 C 0.65625 -2.695312 0.585938 -2.820312 0.546875 -2.96875 C 0.515625 -3.113281 0.5 -3.289062 0.5 -3.5 C 0.5 -3.726562 0.535156 -3.929688 0.609375 -4.109375 C 0.679688 -4.296875 0.789062 -4.445312 0.9375 -4.5625 C 1.09375 -4.6875 1.296875 -4.78125 1.546875 -4.84375 C 1.796875 -4.914062 2.097656 -4.953125 2.453125 -4.953125 C 2.722656 -4.953125 2.976562 -4.9375 3.21875 -4.90625 C 3.457031 -4.875 3.644531 -4.832031 3.78125 -4.78125 L 3.71875 -3.78125 C 3.65625 -3.800781 3.578125 -3.820312 3.484375 -3.84375 C 3.390625 -3.863281 3.285156 -3.882812 3.171875 -3.90625 C 3.054688 -3.925781 2.941406 -3.941406 2.828125 -3.953125 C 2.710938 -3.960938 2.601562 -3.96875 2.5 -3.96875 C 2.195312 -3.96875 1.992188 -3.929688 1.890625 -3.859375 C 1.785156 -3.796875 1.734375 -3.679688 1.734375 -3.515625 C 1.734375 -3.441406 1.742188 -3.378906 1.765625 -3.328125 C 1.785156 -3.285156 1.828125 -3.242188 1.890625 -3.203125 C 1.953125 -3.171875 2.039062 -3.132812 2.15625 -3.09375 C 2.28125 -3.0625 2.4375 -3.019531 2.625 -2.96875 C 2.894531 -2.90625 3.113281 -2.832031 3.28125 -2.75 C 3.457031 -2.664062 3.597656 -2.566406 3.703125 -2.453125 C 3.804688 -2.347656 3.875 -2.210938 3.90625 -2.046875 C 3.945312 -1.890625 3.96875 -1.703125 3.96875 -1.484375 C 3.96875 -1.191406 3.921875 -0.945312 3.828125 -0.75 C 3.742188 -0.5625 3.613281 -0.40625 3.4375 -0.28125 C 3.269531 -0.164062 3.0625 -0.0820312 2.8125 -0.03125 C 2.570312 0.0195312 2.296875 0.046875 1.984375 0.046875 Z M 1.984375 0.046875 "/></g></g></g><g fill="#000000" fill-opacity="1"><g transform="translate(217.780478, 219.403301)"><g><path d="M 1.28125 -5.53125 C 1.144531 -5.53125 1.023438 -5.535156 0.921875 -5.546875 C 0.828125 -5.566406 0.753906 -5.597656 0.703125 -5.640625 C 0.648438 -5.691406 0.613281 -5.765625 0.59375 -5.859375 C 0.570312 -5.953125 0.5625 -6.078125 0.5625 -6.234375 C 0.5625 -6.378906 0.570312 -6.492188 0.59375 -6.578125 C 0.613281 -6.671875 0.648438 -6.738281 0.703125 -6.78125 C 0.753906 -6.832031 0.828125 -6.863281 0.921875 -6.875 C 1.023438 -6.894531 1.144531 -6.90625 1.28125 -6.90625 C 1.4375 -6.90625 1.5625 -6.894531 1.65625 -6.875 C 1.75 -6.863281 1.820312 -6.832031 1.875 -6.78125 C 1.925781 -6.738281 1.960938 -6.671875 1.984375 -6.578125 C 2.003906 -6.492188 2.015625 -6.378906 2.015625 -6.234375 C 2.015625 -6.078125 2.003906 -5.953125 1.984375 -5.859375 C 1.960938 -5.765625 1.925781 -5.691406 1.875 -5.640625 C 1.820312 -5.597656 1.75 -5.566406 1.65625 -5.546875 C 1.5625 -5.535156 1.4375 -5.53125 1.28125 -5.53125 Z M 0.625 -4.859375 L 1.9375 -4.859375 L 1.9375 0 L 0.625 0 Z M 0.625 -4.859375 "/></g></g></g><g fill="#000000" fill-opacity="1"><g transform="translate(225.412493, 219.403301)"><g><path d="M 3.484375 -4.953125 C 3.785156 -4.953125 4.035156 -4.914062 4.234375 -4.84375 C 4.441406 -4.78125 4.609375 -4.675781 4.734375 -4.53125 C 4.867188 -4.394531 4.960938 -4.222656 5.015625 -4.015625 C 5.066406 -3.816406 5.09375 -3.585938 5.09375 -3.328125 L 5.09375 0 L 3.78125 0 L 3.78125 -2.984375 C 3.78125 -3.140625 3.769531 -3.273438 3.75 -3.390625 C 3.726562 -3.515625 3.6875 -3.609375 3.625 -3.671875 C 3.570312 -3.742188 3.492188 -3.796875 3.390625 -3.828125 C 3.285156 -3.867188 3.15625 -3.890625 3 -3.890625 C 2.726562 -3.890625 2.503906 -3.835938 2.328125 -3.734375 C 2.148438 -3.640625 2.03125 -3.46875 1.96875 -3.21875 L 1.96875 0 L 0.65625 0 L 0.65625 -4.859375 L 1.96875 -4.859375 L 1.96875 -4.28125 C 2.09375 -4.5 2.285156 -4.664062 2.546875 -4.78125 C 2.816406 -4.894531 3.128906 -4.953125 3.484375 -4.953125 Z M 3.484375 -4.953125 "/></g></g></g><g fill="#000000" fill-opacity="1"><g transform="translate(236.194529, 219.403301)"><g><path d="M 1.484375 0.046875 C 1.304688 0.046875 1.164062 0.0351562 1.0625 0.015625 C 0.957031 0.00390625 0.878906 -0.03125 0.828125 -0.09375 C 0.773438 -0.15625 0.738281 -0.234375 0.71875 -0.328125 C 0.695312 -0.429688 0.6875 -0.570312 0.6875 -0.75 C 0.6875 -0.925781 0.695312 -1.066406 0.71875 -1.171875 C 0.738281 -1.273438 0.773438 -1.351562 0.828125 -1.40625 C 0.878906 -1.46875 0.957031 -1.503906 1.0625 -1.515625 C 1.164062 -1.535156 1.304688 -1.546875 1.484375 -1.546875 C 1.648438 -1.546875 1.785156 -1.535156 1.890625 -1.515625 C 1.992188 -1.503906 2.070312 -1.46875 2.125 -1.40625 C 2.1875 -1.351562 2.226562 -1.273438 2.25 -1.171875 C 2.269531 -1.066406 2.28125 -0.925781 2.28125 -0.75 C 2.28125 -0.570312 2.269531 -0.429688 2.25 -0.328125 C 2.226562 -0.234375 2.1875 -0.15625 2.125 -0.09375 C 2.070312 -0.03125 1.992188 0.00390625 1.890625 0.015625 C 1.785156 0.0351562 1.648438 0.046875 1.484375 0.046875 Z M 1.484375 0.046875 "/></g></g></g><g fill="#000000" fill-opacity="1"><g transform="translate(244.21355, 219.403301)"><g><path d="M 2.8125 0.09375 C 2.425781 0.09375 2.082031 0.0546875 1.78125 -0.015625 C 1.488281 -0.0976562 1.238281 -0.234375 1.03125 -0.421875 C 0.832031 -0.617188 0.675781 -0.878906 0.5625 -1.203125 C 0.457031 -1.523438 0.40625 -1.9375 0.40625 -2.4375 C 0.40625 -2.925781 0.457031 -3.332031 0.5625 -3.65625 C 0.675781 -3.976562 0.832031 -4.234375 1.03125 -4.421875 C 1.238281 -4.617188 1.488281 -4.753906 1.78125 -4.828125 C 2.082031 -4.910156 2.425781 -4.953125 2.8125 -4.953125 C 3.050781 -4.953125 3.28125 -4.9375 3.5 -4.90625 C 3.71875 -4.882812 3.90625 -4.847656 4.0625 -4.796875 L 4.0625 -3.703125 C 3.738281 -3.816406 3.378906 -3.875 2.984375 -3.875 C 2.765625 -3.875 2.578125 -3.851562 2.421875 -3.8125 C 2.265625 -3.769531 2.132812 -3.691406 2.03125 -3.578125 C 1.9375 -3.460938 1.863281 -3.3125 1.8125 -3.125 C 1.769531 -2.945312 1.75 -2.71875 1.75 -2.4375 C 1.75 -2.144531 1.769531 -1.90625 1.8125 -1.71875 C 1.863281 -1.539062 1.941406 -1.394531 2.046875 -1.28125 C 2.148438 -1.175781 2.28125 -1.097656 2.4375 -1.046875 C 2.59375 -1.003906 2.78125 -0.984375 3 -0.984375 C 3.195312 -0.984375 3.382812 -1 3.5625 -1.03125 C 3.75 -1.0625 3.929688 -1.109375 4.109375 -1.171875 L 4.109375 -0.09375 C 4.035156 -0.0625 3.945312 -0.0351562 3.84375 -0.015625 C 3.75 0.00390625 3.640625 0.0195312 3.515625 0.03125 C 3.398438 0.0507812 3.28125 0.0664062 3.15625 0.078125 C 3.039062 0.0859375 2.925781 0.09375 2.8125 0.09375 Z M 2.8125 0.09375 "/></g></g></g><g fill="#000000" fill-opacity="1"><g transform="translate(253.762574, 219.403301)"><g><path d="M 3.484375 -4.953125 C 3.785156 -4.953125 4.035156 -4.914062 4.234375 -4.84375 C 4.441406 -4.78125 4.609375 -4.675781 4.734375 -4.53125 C 4.867188 -4.394531 4.960938 -4.222656 5.015625 -4.015625 C 5.066406 -3.816406 5.09375 -3.585938 5.09375 -3.328125 L 5.09375 0 L 3.78125 0 L 3.78125 -2.984375 C 3.78125 -3.140625 3.769531 -3.273438 3.75 -3.390625 C 3.726562 -3.515625 3.6875 -3.609375 3.625 -3.671875 C 3.570312 -3.742188 3.492188 -3.796875 3.390625 -3.828125 C 3.285156 -3.867188 3.15625 -3.890625 3 -3.890625 C 2.726562 -3.890625 2.503906 -3.835938 2.328125 -3.734375 C 2.148438 -3.640625 2.03125 -3.46875 1.96875 -3.21875 L 1.96875 0 L 0.65625 0 L 0.65625 -4.859375 L 1.96875 -4.859375 L 1.96875 -4.28125 C 2.09375 -4.5 2.285156 -4.664062 2.546875 -4.78125 C 2.816406 -4.894531 3.128906 -4.953125 3.484375 -4.953125 Z M 3.484375 -4.953125 "/></g></g></g></svg>